<?xml version="1.0"?>
<svg xmlns="http://www.w3.org/2000/svg" xmlns:xlink="http://www.w3.org/1999/xlink" xmlns:svgjs="http://svgjs.com/svgjs" version="1.1" width="512" height="512" x="0" y="0" viewBox="0 0 512 512" style="enable-background:new 0 0 512 512" xml:space="preserve" class=""><g><g xmlns="http://www.w3.org/2000/svg"><g id="Empty_Cart_1_"><g><g><g><path d="m287 0h30v60h-30z" fill="#7adfe3" data-original="#7adfe3" style="" class=""/></g></g></g><g><g><g><path d="m191.552 40.539h29.997v59.994h-29.997z" fill="#7adfe3" transform="matrix(.707 -.707 .707 .707 10.621 166.713)" data-original="#7adfe3" style="" class=""/></g></g></g><g><path d="m367.452 55.538h59.994v29.997h-59.994z" fill="#68c9e0" transform="matrix(.707 -.707 .707 .707 66.534 301.699)" data-original="#68c9e0" style="" class=""/></g></g><g><g><g><g><path d="m111.2 152 75.3 240h257.1l68.4-240z" fill="#7adfe3" data-original="#7adfe3" style="" class=""/></g></g></g></g><path d="m302 392h141.601l68.399-240h-210z" fill="#68c9e0" data-original="#68c9e0" style="" class=""/><path d="m167 422c-8.262 0-15-6.724-15-15s6.738-15 15-15h19.501c-.754-3.038-70.264-283.231-65.94-265.8v.059c-4.847-19.618-22.467-34.259-43.561-34.259h-32c-24.814 0-45 20.186-45 45h30c0-8.276 6.738-15 15-15h32c15.093 0 15.241 15 15.571 15 .751 3.039 60.251 243.799 56.534 228.757-15.923 6.938-27.105 22.793-27.105 41.243 0 24.814 20.186 45 45 45h240v-30z" fill="#f3f5f9" data-original="#f3f5f9" style="" class=""/><path d="m302 422h105v30h-105z" fill="#d8e0f0" data-original="#d8e0f0" style="" class=""/><g><path d="m407 512c-24.814 0-45-20.186-45-45s20.186-45 45-45 45 20.186 45 45-20.186 45-45 45z" fill="#3d4b66" data-original="#3d4b66" style="" class=""/></g><g><g><g><g><path d="m227 512c-24.814 0-45-20.186-45-45s20.186-45 45-45 45 20.186 45 45-20.186 45-45 45z" fill="#4d5e80" data-original="#4d5e80" style=""/></g></g></g></g><circle cx="227" cy="467" fill="#f3f5f9" r="15" data-original="#f3f5f9" style="" class=""/><circle cx="407" cy="467" fill="#d8e0f0" r="15" data-original="#d8e0f0" style="" class=""/><g><path d="m302 0h15v60h-15z" fill="#68c9e0" data-original="#68c9e0" style="" class=""/></g></g></g></svg>
