<svg height="486pt" viewBox="0 0 486.85904 486" width="486pt" xmlns="http://www.w3.org/2000/svg"><path d="m382.929688 277.941406-.023438-1.621094c-.152344-14.75-12.230469-26.582031-26.976562-26.429687l-38.589844.390625c-1.058594.003906-2.097656.257812-3.03125.75-2.363282 1.175781-3.84375 3.597656-3.820313 6.238281l.308594 29.679688.101563 10.332031.140624 13.507812c.195313 19.796876 16.300782 35.742188 36.097657 35.742188h.371093c19.9375-.207031 35.9375-16.53125 35.738282-36.472656zm55.96875-23.171875c27.675781 25.980469 42.589843 62.773438 40.820312 100.691407-1.773438 37.917968-20.054688 73.160156-50.03125 96.449218l-.738281-49.101562c.960937-10.5625-2.59375-21.039063-9.789063-28.832032-7.191406-7.796874-17.347656-12.183593-27.953125-12.078124l-9.117187.089843-13.921875 51.042969-15.25-26.582031h.011719l6.988281-23.128907-23.050781.238282 7.449218 22.980468-13.578125 26.871094-13.800781-51.601562-10.269531.949218c-10.609375.105469-20.675781 4.699219-27.710938 12.640626-7.03125 7.941406-10.375 18.488281-9.199219 29.03125l.582032 47.890624-.171875.21875c-32.105469-24.582031-50.949219-62.703124-50.980469-103.140624 0-4.359376.210938-8.664063.628906-12.910157v-.007812c5.074219-49.347657 37.695313-91.542969 84.171875-108.878907 46.476563-17.332031 98.765625-6.804687 134.910157 27.167969zm0 0" fill="#00acea"/><path d="m438.898438 191.960938v62.808593c-27.636719-25.929687-65.164063-38.589843-102.859376-34.699219-1.957031-61.390624-52.648437-109.945312-114.070312-109.261718-61.417969.6875-111.011719 50.363281-111.597656 111.78125-.585938 61.421875 48.054687 112.03125 109.445312 113.890625v.007812c-.417968 4.242188-.628906 8.542969-.628906 12.910157-.035156 33.832031 13.175781 66.328124 36.800781 90.542968l-64.449219-.050781-4.53125-46.980469c-20.558593-4.554687-40.125-12.800781-57.738281-24.339844l-36.230469 30-44.722656-44.722656 30.011719-36.226562c-11.640625-17.558594-19.898437-37.140625-24.351563-57.730469l-46.980468-4.53125v-63.398437l46.980468-4.53125c4.554688-20.558594 12.804688-40.121094 24.351563-57.730469l-30.011719-36.230469 44.722656-44.71875 36.230469 30c17.5625-11.636719 37.144531-19.890625 57.738281-24.339844l4.53125-46.980468h63.390626l4.527343 46.980468c20.5625 4.554688 40.125 12.800782 57.742188 24.339844l36.230469-30 44.148437 44.71875-30 36.230469c11.632813 17.5625 19.890625 37.140625 24.339844 57.730469zm0 0" fill="#00efd1"/><path d="m368.167969 413.03125 13.921875-51.042969 9.117187-.089843c10.605469-.105469 20.761719 4.28125 27.953125 12.078124 7.195313 7.792969 10.75 18.269532 9.789063 28.832032l.738281 49.101562c-46.851562 36.433594-112.378906 36.691406-159.519531.628906l.171875-.21875-.582032-47.890624c-1.175781-10.542969 2.167969-21.089844 9.199219-29.03125 7.035157-7.941407 17.101563-12.535157 27.710938-12.640626l10.269531-.949218 13.800781 51.601562 13.578125-26.871094 8.601563-.089843zm0 0" fill="#fedb41"/><path d="m383.246094 310.058594c.199218 19.941406-15.800782 36.265625-35.738282 36.472656h-.371093c-19.796875 0-35.902344-15.945312-36.097657-35.742188l-.140624-13.507812h.007812c3.902344-12.882812 15.347656-22.019531 28.773438-22.972656l.019531-.027344c11.757812 6.910156 26.777343 10.910156 43.230469 3.660156zm0 0" fill="#fedb41"/><path d="m382.90625 276.320312.023438 1.621094c-16.453126 7.25-31.472657 3.25-43.230469-3.660156-15.519531-9.089844-25.382813-23.230469-25.382813-23.230469l-.007812-.019531c.933594-.492188 1.972656-.746094 3.03125-.75l38.589844-.390625c14.746093-.152344 26.824218 11.679687 26.976562 26.429687zm0 0" fill="#4b5d63"/><path d="m339.699219 274.28125-.019531.027344c-13.425782.953125-24.871094 10.089844-28.773438 22.972656h-.007812l-.101563-10.332031-.308594-29.679688c-.023437-2.640625 1.457031-5.0625 3.820313-6.238281l.007812.019531s9.863282 14.140625 25.382813 23.230469zm0 0" fill="#4b5d63"/><g fill="#083863"><path d="m445.898438 251.796875v-59.835937c0-3.605469-2.738282-6.625-6.328126-6.96875l-41.972656-4.046876c-4.4375-17.917968-11.644531-35.03125-21.359375-50.726562l26.730469-32.285156c2.292969-2.765625 2.117188-6.820313-.410156-9.378906l-44.148438-44.722657c-2.550781-2.582031-6.652344-2.789062-9.445312-.472656l-32.335938 26.769531c-15.710937-9.667968-32.804687-16.882812-50.6875-21.398437l-4.046875-41.972657c-.347656-3.589843-3.363281-6.328124-6.96875-6.328124h-63.386719c-3.605468 0-6.621093 2.738281-6.96875 6.328124l-4.042968 41.96875c-17.921875 4.4375-35.042969 11.644532-50.742188 21.363282l-32.28125-26.730469c-2.78125-2.304687-6.859375-2.113281-9.414062.441406l-44.722656 44.71875c-2.554688 2.554688-2.746094 6.632813-.441407 9.414063l26.78125 32.332031c-9.671875 15.703125-16.894531 32.792969-21.40625 50.679687l-41.972656 4.046876c-3.589844.34375-6.328125 3.363281-6.328125 6.96875v63.398437c0 3.605469 2.738281 6.621094 6.328125 6.96875l41.972656 4.046875c4.433594 17.917969 11.644531 35.035156 21.367188 50.726562l-26.738281 32.28125c-2.304688 2.785157-2.113282 6.863282.4375 9.417969l44.722656 44.71875c2.554687 2.554688 6.632812 2.746094 9.414062.441407l32.332032-26.773438c15.710937 9.667969 32.804687 16.886719 50.6875 21.402344l4.046874 41.972656c.347657 3.585938 3.359376 6.324219 6.964844 6.328125l61.570313.046875c39.394531 38.839844 98.25 50.25 149.304687 28.949219 51.054688-21.304688 84.34375-71.164063 84.449219-126.488281.140625-36.742188-14.640625-71.96875-40.960937-97.601563zm-251.921876 140.441406c-.292968-3.03125-2.511718-5.527343-5.488281-6.171875-19.734375-4.386718-38.511719-12.308594-55.425781-23.378906-2.566406-1.65625-5.90625-1.457031-8.257812.488281l-31.324219 25.9375-35.707031-35.707031 25.945312-31.320312c1.972656-2.382813 2.148438-5.777344.433594-8.351563-11.148438-16.832031-19.058594-35.59375-23.332032-55.324219-.644531-2.976562-3.140624-5.199218-6.171874-5.488281l-40.648438-3.921875v-50.679688l40.648438-3.921874c3.03125-.292969 5.527343-2.511719 6.171874-5.488282 4.386719-19.730468 12.308594-38.503906 23.390626-55.410156 1.65625-2.566406 1.457031-5.910156-.492188-8.265625l-25.945312-31.324219 35.710937-35.707031 31.320313 25.933594c2.382812 1.972656 5.773437 2.148437 8.347656.433593 16.835937-11.140624 35.601562-19.050781 55.335937-23.320312 2.976563-.644531 5.195313-3.140625 5.488281-6.171875l3.921876-40.652344h50.671874l3.921876 40.652344c.292968 3.03125 2.511718 5.527344 5.488281 6.171875 19.734375 4.386719 38.511719 12.308594 55.425781 23.378906 2.5625 1.65625 5.90625 1.457032 8.257812-.492187l31.289063-25.90625 35.199219 35.648437-25.964844 31.355469c-1.972656 2.378906-2.148438 5.773437-.433594 8.34375 11.140625 16.835937 19.050782 35.597656 23.324219 55.328125.644531 2.976562 3.136719 5.195312 6.167969 5.488281l40.652344 3.921875v41.441406c-23.761719-17.820312-52.675782-27.429687-82.378907-27.382812-2.320312 0-4.636719.0625-6.941406.175781-5.871094-63.074219-59.8125-110.691406-123.128906-108.691406-63.316407 1.996094-114.144531 52.917969-116.027344 116.238281-1.886719 63.320313 45.828125 117.175782 108.914063 122.933594-.097657 2.113281-.148438 4.238281-.148438 6.367188-.058594 30.230468 9.957031 59.621093 28.46875 83.527343l-42.757812-.035156zm19.710938-63.140625c-55.75-5.042968-97.9375-52.613281-96.285156-108.566406 1.65625-55.953125 46.582031-100.949219 102.535156-102.6875 55.949219-1.742188 103.585938 40.375 108.710938 96.117188-59.207032 9.027343-106.132813 56.023437-114.960938 115.136718zm63.613281 120-.542969-44.75c0-.230468-.019531-.464844-.042968-.695312-.957032-8.574219 1.761718-17.15625 7.484375-23.613282 5.722656-6.460937 13.910156-10.195312 22.539062-10.28125.191407 0 .382813-.007812.574219-.027343l4.390625-.40625 12.273437 45.898437 6.742188-1.796875h.027344l6.238281 3.152344 11.660156-23.074219h.242188l13.210937 23.023438 6.058594-3.480469h.027344l6.734375 1.835937 12.527343-45.933593 3.832032-.039063c8.628906-.085937 16.886718 3.484375 22.738281 9.824219 5.847656 6.339844 8.738281 14.863281 7.957031 23.453125-.019531.246094-.03125.492188-.027344.738281l.6875 45.53125c-43.175781 31.710938-101.875 31.976563-145.332031.652344zm69.164063-78.636718 4-.039063-1.9375 6.398437zm89.992187 66.203124-.503906-33.601562c1.019531-12.394531-3.195313-24.652344-11.621094-33.804688-8.425781-9.148437-20.296875-14.355468-32.734375-14.355468-.152344 0-.304687 0-.457031 0l-9.121094.089844c-3.132812.03125-5.859375 2.136718-6.683593 5.15625l-9.484376 34.777343-5.351562-9.328125 6.117188-20.25c.644531-2.121094.242187-4.421875-1.078126-6.199218-1.320312-1.777344-3.40625-2.828126-5.621093-2.828126h-.070313l-23.050781.242188c-2.226563.023438-4.3125 1.105469-5.613281 2.910156-1.296875 1.808594-1.660156 4.128906-.972656 6.246094l6.558593 20.238281-4.007812 7.929688-9.0625-33.882813c-.878907-3.296875-4.007813-5.476562-7.40625-5.164062l-9.992188.925781c-12.472656.207031-24.285156 5.636719-32.5625 14.96875-8.277343 9.332031-12.257812 21.707031-10.972656 34.113281l.390625 32.34375c-.722656-.707031-1.445312-1.410156-2.148438-2.132812-22.375-22.890625-34.878906-53.648438-34.820312-85.660156 0-4.117188.199219-8.226563.601562-12.21875 0-.039063.007813-.074219.007813-.109376 5.777344-57.828124 52-104.101562 109.960937-110.035156h.007813c35.671875-3.679687 71.1875 8.300782 97.34375 32.835938 24.3125 22.824218 38.300781 54.550781 38.742187 87.898437.445313 33.34375-12.691406 65.433594-36.390624 88.894531zm0 0"/><path d="m356.207031 242.886719c-.117187 0-.234375 0-.351562 0l-38.582031.390625c-2.140626.019531-4.25.539062-6.152344 1.519531-4.710938 2.402344-7.664063 7.257813-7.632813 12.542969l.550781 53.519531c.3125 23.601563 19.492188 42.59375 43.097657 42.667969h.445312c23.789063-.277344 42.871094-19.75 42.664063-43.539063l-.339844-33.742187c-.210938-18.46875-15.230469-33.335938-33.699219-33.359375zm-.207031 14c9.632812-.058594 17.90625 6.835937 19.59375 16.320312-10.476562 3.167969-21.335938 1.507813-32.359375-4.96875-5.183594-3.105469-9.980469-6.824219-14.277344-11.078125zm-38.425781 8.707031c1.863281 1.902344 3.988281 3.917969 6.359375 5.945312-2.214844 1.105469-4.308594 2.433594-6.257813 3.957032zm29.933593 73.9375h-.371093c-15.9375-.054688-28.886719-12.878906-29.097657-28.8125l-.128906-12.40625c3.128906-8.972656 11.007813-15.445312 20.417969-16.773438 8.203125 4.621094 17.4375 7.105469 26.855469 7.226563 3.644531-.003906 7.277344-.410156 10.832031-1.214844l.226563 22.578125c.148437 16.039063-12.695313 29.179688-28.734376 29.402344zm0 0"/></g></svg>