<svg id="Capa_1" enable-background="new 0 0 512 512" height="512" viewBox="0 0 512 512" width="512" xmlns="http://www.w3.org/2000/svg"><g><g><path d="m245 11c-58.656 0-112.489 20.623-154.668 55v380c42.179 34.377 96.012 55 154.668 55 135.31 0 245-109.69 245-245s-109.69-245-245-245z" fill="#ff4155"/></g><g><path d="m462 256c0 22.62 15.02 41.72 35.62 47.9 8.51 2.55 14.38 10.31 14.38 19.19v102.91c0 11.05-8.95 20-20 20h-105.6c-7.07 0-13.78-3.61-17.24-9.78-3.42-6.1-9.96-10.22-17.45-10.22l-20-170 20-170c7.49 0 14.03-4.12 17.45-10.22 3.46-6.17 10.17-9.78 17.24-9.78h105.6c11.05 0 20 8.95 20 20v102.91c0 8.88-5.87 16.64-14.38 19.19-20.6 6.18-35.62 25.28-35.62 47.9z" fill="#ffb332"/></g><g><path d="m411.71 426v-340c0-11.05 8.95-20 20-20h-45.31c-7.07 0-13.78 3.61-17.24 9.78-3.42 6.1-9.96 10.22-17.45 10.22l-20 170 20 170c7.49 0 14.03 4.12 17.45 10.22 3.46 6.17 10.17 9.78 17.24 9.78h45.31c-11.05 0-20-8.95-20-20z" fill="#ff9433"/></g><g><path d="m351.71 426c-7.5 0-14.03 4.12-17.45 10.22-3.46 6.17-10.18 9.78-17.24 9.78h-226.7c-55.12-44.92-90.32-113.35-90.32-190s35.2-145.08 90.32-190h226.7c7.06 0 13.78 3.61 17.24 9.78 3.42 6.1 9.95 10.22 17.45 10.22z" fill="#ffdd40"/></g><g><path d="m90.332 446h123.008c-22.091 0-40-17.909-40-40v-300c0-22.091 17.909-40 40-40h-123.008c-55.121 44.925-90.332 113.346-90.332 190s35.211 145.075 90.332 190z" fill="#ffc839"/></g><g><g><g><path d="m104.453 373.558c-3.364 0-6.773-.851-9.904-2.639-9.591-5.48-12.922-17.698-7.442-27.288l111.492-195.109c5.48-9.59 17.696-12.92 27.288-7.442 9.591 5.48 12.922 17.698 7.442 27.288l-111.493 195.109c-3.691 6.46-10.44 10.081-17.383 10.081z" fill="#fff"/></g></g><g><g><path d="m82.609 257.192c-29.711 0-53.883-26.635-53.883-59.373 0-32.739 24.172-59.374 53.883-59.374 29.712 0 53.884 26.635 53.884 59.374 0 32.738-24.172 59.373-53.884 59.373zm0-78.747c-7.525 0-13.883 8.872-13.883 19.374 0 10.501 6.357 19.373 13.883 19.373s13.884-8.872 13.884-19.373c0-10.502-6.359-19.374-13.884-19.374z" fill="#fff"/></g></g><g><g><path d="m237.826 373.554c-29.712 0-53.884-26.635-53.884-59.374s24.172-59.374 53.884-59.374c29.711 0 53.883 26.635 53.883 59.374s-24.172 59.374-53.883 59.374zm0-78.748c-7.525 0-13.884 8.872-13.884 19.374s6.358 19.374 13.884 19.374 13.883-8.872 13.883-19.374-6.358-19.374-13.883-19.374z" fill="#fff"/></g></g><g><path d="m235.359 295.498c-10.157-1.22-18.034-9.852-18.034-20.338 0-9.295 6.19-17.134 14.67-19.647-26.979 3.214-48.053 28.452-48.053 59.021 0 30.568 21.075 55.806 48.053 59.02-8.48-2.513-14.67-10.352-14.67-19.647 0-10.485 7.877-19.117 18.034-20.338-6.396-1.679-11.417-9.707-11.417-19.035 0-9.33 5.021-17.357 11.417-19.036z" fill="#d3dcfb"/></g><g><path d="m80.143 178.782c-10.157-1.22-18.034-9.852-18.034-20.338 0-9.295 6.19-17.134 14.67-19.647-26.979 3.214-48.053 28.452-48.053 59.021 0 30.568 21.075 55.806 48.053 59.02-8.48-2.513-14.67-10.352-14.67-19.647 0-10.485 7.877-19.117 18.034-20.338-6.396-1.679-11.417-9.707-11.417-19.035 0-9.329 5.021-17.356 11.417-19.036z" fill="#d3dcfb"/></g><g><path d="m160.217 276.5c-11.322 0-20.5-9.178-20.5-20.5 0-2.093.317-4.111.9-6.013l-53.512 93.645c-5.479 9.59-2.148 21.808 7.442 27.288 3.131 1.788 6.54 2.639 9.904 2.639 6.943 0 13.692-3.621 17.384-10.081l53.566-93.74c-3.749 4.143-9.154 6.762-15.184 6.762z" fill="#d3dcfb"/></g></g><g><g><g><path d="m324.21 187.786h-40c-4.143 0-7.5-3.357-7.5-7.5s3.357-7.5 7.5-7.5h40c4.143 0 7.5 3.357 7.5 7.5s-3.357 7.5-7.5 7.5z" fill="#ffc839"/></g><g><path d="m324.21 227.786h-40c-4.143 0-7.5-3.357-7.5-7.5s3.357-7.5 7.5-7.5h40c4.143 0 7.5 3.357 7.5 7.5s-3.357 7.5-7.5 7.5z" fill="#ffc839"/></g></g><g><circle cx="316.71" cy="131" fill="#ffc839" r="15"/></g></g><g><g><g><path d="m419.21 363.5h-40c-4.143 0-7.5-3.357-7.5-7.5s3.357-7.5 7.5-7.5h40c4.143 0 7.5 3.357 7.5 7.5s-3.357 7.5-7.5 7.5z" fill="#fff"/></g><g><path d="m419.21 403.5h-40c-4.143 0-7.5-3.357-7.5-7.5s3.357-7.5 7.5-7.5h40c4.143 0 7.5 3.357 7.5 7.5s-3.357 7.5-7.5 7.5z" fill="#fff"/></g></g><g><circle cx="386.71" cy="306.714" fill="#fff" r="15"/></g></g></g></svg>